<svg width="102" height="105" viewBox="0 0 102 105" fill="none" xmlns="http://www.w3.org/2000/svg">
<rect width="102" height="105" rx="10" fill="#8929CE"/>
<path d="M80 19H23C21.3431 19 20 20.3431 20 22V89C20 90.6569 21.3431 92 23 92H31.5385C33.1953 92 34.5385 90.6569 34.5385 89V61.4446C34.5385 59.7878 35.8816 58.4446 37.5385 58.4446H71C72.6569 58.4446 74 57.1015 74 55.4447V48.4765C74 46.8197 72.6569 45.4765 71 45.4765H37.5385C35.8816 45.4765 34.5385 44.1334 34.5385 42.4765V36.5891C34.5385 34.9323 35.8816 33.5891 37.5385 33.5891H80C81.6569 33.5891 83 32.246 83 30.5891V22C83 20.3431 81.6569 19 80 19Z" fill="white"/>
</svg>
