<svg width="153" height="153" viewBox="0 0 153 153" fill="none" xmlns="http://www.w3.org/2000/svg">
<rect width="153" height="153" rx="10" fill="#8929CE"/>
<path d="M107.099 22.7228H26.2079C23.4465 22.7228 21.2079 24.9614 21.2079 27.7228V131.203C21.2079 135.744 26.773 137.934 29.8674 134.61L40.8422 122.822C41.7038 121.897 42.1828 120.679 42.1828 119.415V84.6302C42.1828 81.8688 44.4213 79.6302 47.1827 79.6302H74.083C76.8444 79.6302 79.083 77.3916 79.083 74.6302V65.9209C79.083 63.1595 76.8444 60.9209 74.083 60.9209H47.1828C44.4213 60.9209 42.1828 58.6823 42.1828 55.9209V48.7707C42.1828 46.0093 44.4213 43.7707 47.1828 43.7707H107.099C109.86 43.7707 112.099 41.5322 112.099 38.7707V27.7228C112.099 24.9614 109.86 22.7228 107.099 22.7228Z" fill="white"/>
<path d="M78.87 123V119.72C78.87 118.162 78.8973 116.864 78.952 115.825C79.034 114.759 79.2253 113.884 79.526 113.201C79.8267 112.518 80.2913 111.93 80.92 111.438C81.576 110.946 82.4917 110.454 83.667 109.962L91.088 106.805C92.072 106.368 92.81 105.958 93.302 105.575C93.794 105.192 94.122 104.728 94.286 104.181C94.4773 103.634 94.573 102.91 94.573 102.008C94.573 100.696 94.368 99.7257 93.958 99.097C93.5753 98.441 92.8783 98.0173 91.867 97.826C90.883 97.6073 89.4753 97.498 87.644 97.498C86.988 97.498 86.1817 97.5253 85.225 97.58C84.2957 97.6347 83.3253 97.703 82.314 97.785C81.3027 97.8397 80.346 97.9217 79.444 98.031V95.161C80.2367 95.0243 81.1523 94.915 82.191 94.833C83.257 94.7237 84.3503 94.6417 85.471 94.587C86.619 94.505 87.6987 94.464 88.71 94.464C90.022 94.464 91.2383 94.5323 92.359 94.669C93.4797 94.8057 94.4773 95.1063 95.352 95.571C96.2267 96.0357 96.8963 96.76 97.361 97.744C97.853 98.7007 98.099 99.999 98.099 101.639C98.099 103.279 97.9213 104.591 97.566 105.575C97.238 106.532 96.6913 107.311 95.926 107.912C95.188 108.486 94.204 109.033 92.974 109.552L84.528 113.119C83.8173 113.42 83.298 113.761 82.97 114.144C82.6693 114.527 82.478 115.032 82.396 115.661C82.314 116.262 82.273 117.041 82.273 117.998V119.925H98.099V123H78.87ZM107.994 123V94.792H111.52V107.133H116.563L126.239 94.792H130.134L119.433 108.486L130.257 123H126.157L116.563 110.208H111.52V123H107.994Z" fill="white"/>
</svg>
